<?xml version="1.0" encoding="UTF-8"?>
<svg width="200px" height="200px" viewBox="0 0 200 200" version="1.1" xmlns="http://www.w3.org/2000/svg">
    <g stroke="none" stroke-width="1" fill="none" fill-rule="evenodd">
        <!-- Medium Blue Wave -->
        <g transform="translate(10.000000, 40.000000)" stroke="#0086e6" stroke-width="4">
            <path d="M0,60 C10,60 10,20 20,20 C30,20 30,100 40,100 C50,100 50,0 60,0 C70,0 70,120 80,120 C90,120 90,40 100,40 C110,40 110,80 120,80 C130,80 130,20 140,20 C150,20 150,60 160,60 C170,60 170,40 180,40" stroke-linecap="round"></path>
        </g>
        <!-- Aquamarine Wave (slightly offset) -->
        <g transform="translate(10.000000, 45.000000)" stroke="#7fffd4" stroke-width="4">
            <path d="M0,60 C10,60 10,20 20,20 C30,20 30,100 40,100 C50,100 50,0 60,0 C70,0 70,120 80,120 C90,120 90,40 100,40 C110,40 110,80 120,80 C130,80 130,20 140,20 C150,20 150,60 160,60 C170,60 170,40 180,40" stroke-linecap="round"></path>
        </g>
        <!-- Light Blue Wave (slightly offset) -->
        <g transform="translate(10.000000, 50.000000)" stroke="#66ccff" stroke-width="4">
            <path d="M0,60 C10,60 10,20 20,20 C30,20 30,100 40,100 C50,100 50,0 60,0 C70,0 70,120 80,120 C90,120 90,40 100,40 C110,40 110,80 120,80 C130,80 130,20 140,20 C150,20 150,60 160,60 C170,60 170,40 180,40" stroke-linecap="round"></path>
        </g>
    </g>
</svg>