<?xml version="1.0" encoding="UTF-8"?>
<svg width="32px" height="32px" viewBox="0 0 32 32" version="1.1" xmlns="http://www.w3.org/2000/svg">
    <defs>
        <linearGradient id="faviconGradient" x1="0%" y1="0%" x2="100%" y2="100%">
            <stop offset="0%" stop-color="#0086e6" />
            <stop offset="100%" stop-color="#0069b4" />
        </linearGradient>
    </defs>
    <g stroke="none" stroke-width="1" fill="none" fill-rule="evenodd">
        <circle cx="16" cy="16" r="14" fill="white" stroke="url(#faviconGradient)" stroke-width="2"></circle>
        
        <!-- Sound Waves -->
        <g transform="translate(6, 8)" stroke="url(#faviconGradient)" stroke-width="1.5" stroke-linecap="round">
            <path d="M2,8 C3,8 3,5 4,5 C5,5 5,11 6,11 C7,11 7,2 8,2 C9,2 9,14 10,14 C11,14 11,5 12,5 C13,5 13,11 14,11 C15,11 15,8 16,8 C17,8 17,5 18,5 C19,5 19,8 20,8"></path>
        </g>
        
        <!-- Router Elements -->
        <rect x="10" y="22" width="12" height="1.5" rx="0.75" fill="url(#faviconGradient)"></rect>
        <rect x="12" y="25" width="8" height="1.5" rx="0.75" fill="url(#faviconGradient)"></rect>
    </g>
</svg>